#!OML:ASF X:\für Bonn\!DataBase\2005_08_12_Daniel\c3d\Daniel.ASF
:FULLY-SPECIFIED
:DEGREES
211
root 0.508182 15.0865 -16.8132 376.156 22.3686 11.2921
lowerback 86.9648 -8.51311 10.9556
upperback 7.04773 2.10165 -2.22043
thorax -10.8391 1.62846 -7.60315
lowerneck 3.76136 -8.74264 -1.50134
upperneck 6.99406 -11.6577 6.44748
head 2.1037 -5.61734 2.19714
rclavicle -9.54166e-015 4.13472e-014
rhumerus 237.968 -160.732 -265.062
rradius 6.42838
rwrist 18.729
rhand -45.3812 6.30385
rfingers 7.12502
rthumb -18.1504 -22.8693
lclavicle -9.54166e-015 4.13472e-014
lhumerus -26.9158 -20.5118 94.3108
lradius 53.9597
lwrist 13.9891
lhand -8.60363 -8.52892
lfingers 7.12502
lthumb 17.328 20.7186
rfemur -61.5038 -11.7828 3.71383
rtibia 81.1172
rfoot -29.5367 -5.99836
rtoes -16.4772
lfemur -65.8872 -7.08218 -28.1912
ltibia 72.407
lfoot -16.0626 -24.0976
ltoes -3.60241
212
root 0.504069 15.0809 -16.81 376.208 22.4974 11.3613
lowerback 86.9457 -8.52352 10.9911
upperback 7.05434 2.12732 -2.2173
thorax -10.8272 1.64217 -7.62265
lowerneck 3.67599 -8.79134 -1.50004
upperneck 6.99954 -11.7244 6.46044
head 2.12442 -5.64864 2.19569
rclavicle -1.59028e-014 9.93923e-015
rhumerus 238.252 -161.008 -265.139
rradius 6.37226
rwrist 21.156
rhand -44.0859 6.79586
rfingers 7.12502
rthumb -16.9039 -22.4885
lclavicle -1.59028e-014 9.93923e-015
lhumerus -26.8054 -20.5839 94.3723
lradius 53.9112
lwrist 14.0162
lhand -8.72191 -8.63057
lfingers 7.12502
lthumb 17.2141 20.627
rfemur -61.5374 -11.8919 3.67922
rtibia 81.2271
rfoot -29.5988 -6.0324
rtoes -16.4516
lfemur -65.9323 -7.09588 -28.2568
ltibia 72.4425
lfoot -16.0083 -24.2443
ltoes -3.39926
213
root 0.499207 15.0742 -16.8072 376.229 22.6319 11.4085
lowerback 86.9551 -8.54412 11.0411
upperback 7.05266 2.15894 -2.2205
thorax -10.818 1.65854 -7.65678
lowerneck 3.6419 -8.85007 -1.48422
upperneck 6.96452 -11.8017 6.48541
head 2.12331 -5.68652 2.19859
rclavicle 3.49861e-014 1.78906e-014
rhumerus 238.571 -161.262 -265.212
rradius 6.25647
rwrist 23.575
rhand -42.9213 7.29318
rfingers 7.12502
rthumb -15.7826 -22.0834
lclavicle 3.49861e-014 1.78906e-014
lhumerus -26.7299 -20.6841 94.4097
lradius 53.909
lwrist 14.1026
lhand -8.76443 -8.67816
lfingers 7.12502
lthumb 17.1732 20.5829
rfemur -61.5393 -11.9689 3.66312
rtibia 81.3314
rfoot -29.6832 -6.08914
rtoes -16.548
lfemur -65.9529 -7.10604 -28.3032
ltibia 72.4785
lfoot -15.9828 -24.3602
ltoes -3.38152
214
root 0.495235 15.07 -16.8035 376.266 22.7638 11.4731
lowerback 86.9175 -8.55951 11.0892
upperback 7.08442 2.18814 -2.21597
thorax -10.7762 1.67708 -7.67969
lowerneck 3.60707 -8.90704 -1.4896
upperneck 6.9118 -11.878 6.53663
head 2.11992 -5.72473 2.21379
rclavicle -1.08139e-013 5.28767e-014
rhumerus 238.955 -161.534 -265.288
rradius 6.07258
rwrist 25.851
rhand -41.9949 7.84619
rfingers 7.12502
rthumb -14.8903 -21.5987
lclavicle -1.08139e-013 5.28767e-014
lhumerus -26.6395 -20.7531 94.4643
lradius 53.8905
lwrist 14.1535
lhand -8.80174 -8.74316
lfingers 7.12502
lthumb 17.1373 20.5211
rfemur -61.5378 -12.0536 3.62511
rtibia 81.4319
rfoot -29.7607 -6.13638
rtoes -16.5982
lfemur -65.974 -7.11682 -28.3688
ltibia 72.5039
lfoot -15.9143 -24.487
ltoes -3.23082
215
root 0.491038 15.0655 -16.8004 376.279 22.8986 11.5251
lowerback 86.9431 -8.5843 11.1453
upperback 7.08213 2.22713 -2.20805
thorax -10.7634 1.69571 -7.70433
lowerneck 3.61556 -8.95958 -1.48437
upperneck 6.79957 -11.9451 6.57495
head 2.08721 -5.76093 2.22639
rclavicle 1.62208e-013 -2.42517e-014
rhumerus 239.326 -161.783 -265.324
rradius 5.84986
rwrist 27.926
rhand -41.3204 8.50784
rfingers 7.12502
rthumb -14.2404 -20.984
lclavicle 1.62208e-013 -2.42517e-014
lhumerus -26.5529 -20.8312 94.5383
lradius 53.8793
lwrist 14.2548
lhand -8.8473 -8.75091
lfingers 7.12502
lthumb 17.0934 20.5171
rfemur -61.5198 -12.1296 3.59739
rtibia 81.531
rfoot -29.837 -6.18737
rtoes -16.5667
lfemur -65.976 -7.12092 -28.4293
ltibia 72.5333
lfoot -15.8866 -24.6236
ltoes -3.10079
216
root 0.486402 15.0589 -16.7965 376.313 23.043 11.6156
lowerback 86.9659 -8.62356 11.1937
upperback 7.06603 2.24262 -2.21827
thorax -10.7712 1.7057 -7.74008
lowerneck 3.60932 -9.01718 -1.43155
upperneck 6.74773 -12.0177 6.58012
head 2.07146 -5.79678 2.21846
rclavicle -8.26944e-014 -4.92986e-014
rhumerus 239.654 -162.029 -265.386
rradius 5.64218
rwrist 29.7876
rhand -40.7886 9.08696
rfingers 7.12502
rthumb -13.7279 -20.4402
lclavicle -8.26944e-014 -4.92986e-014
lhumerus -26.5105 -20.8778 94.5878
lradius 53.8783
lwrist 14.3134
lhand -8.91596 -8.75251
lfingers 7.12502
lthumb 17.0273 20.5212
rfemur -61.5089 -12.2358 3.53739
rtibia 81.6431
rfoot -29.9156 -6.22548
rtoes -16.6119
lfemur -65.9883 -7.14422 -28.5138
ltibia 72.5668
lfoot -15.8181 -24.7534
ltoes -2.94903
217
root 0.482072 15.053 -16.7935 376.349 23.1841 11.665
lowerback 86.9488 -8.63342 11.2394
upperback 7.07957 2.28409 -2.18924
thorax -10.7476 1.72367 -7.73632
lowerneck 3.5886 -9.0608 -1.41662
upperneck 6.65899 -12.0724 6.57095
head 2.04666 -5.82628 2.21255
rclavicle 9.54166e-015 3.10104e-014
rhumerus 240.024 -162.311 -265.406
rradius 5.41657
rwrist 31.4323
rhand -40.4251 9.57828
rfingers 7.12502
rthumb -13.3775 -19.9722
lclavicle 9.54166e-015 3.10104e-014
lhumerus -26.4375 -20.8824 94.6617
lradius 53.88
lwrist 14.344
lhand -8.91983 -8.78473
lfingers 7.12502
lthumb 17.0236 20.4893
rfemur -61.5355 -12.3246 3.52488
rtibia 81.7581
rfoot -29.9807 -6.30705
rtoes -16.6528
lfemur -66.0184 -7.1519 -28.568
ltibia 72.6032
lfoot -15.7868 -24.8985
ltoes -2.88771
